<svg width="234" height="30" viewBox="0 0 234 30" fill="none" xmlns="http://www.w3.org/2000/svg">
<g clip-path="url(#clip0_0_693)">
<rect width="234" height="30" fill="#272E34"/>
<line x1="-0.317295" y1="-83.6254" x2="-225.375" y2="115.309" stroke="#4B5257"/>
<line x1="5.7413" y1="-83.6254" x2="-219.316" y2="115.309" stroke="#4B5257"/>
<line x1="11.7999" y1="-83.6254" x2="-213.258" y2="115.309" stroke="#4B5257"/>
<line x1="17.8585" y1="-83.6254" x2="-207.199" y2="115.309" stroke="#4B5257"/>
<line x1="23.9171" y1="-83.6254" x2="-201.141" y2="115.309" stroke="#4B5257"/>
<line x1="29.9757" y1="-83.6254" x2="-195.082" y2="115.309" stroke="#4B5257"/>
<line x1="36.0343" y1="-83.6254" x2="-189.023" y2="115.309" stroke="#4B5257"/>
<line x1="42.0929" y1="-83.6254" x2="-182.965" y2="115.309" stroke="#4B5257"/>
<line x1="48.1515" y1="-83.6254" x2="-176.906" y2="115.309" stroke="#4B5257"/>
<line x1="54.21" y1="-83.6254" x2="-170.848" y2="115.309" stroke="#4B5257"/>
<line x1="60.2686" y1="-83.6254" x2="-164.789" y2="115.309" stroke="#4B5257"/>
<line x1="66.3272" y1="-83.6254" x2="-158.73" y2="115.309" stroke="#4B5257"/>
<line x1="72.3858" y1="-83.6254" x2="-152.672" y2="115.309" stroke="#4B5257"/>
<line x1="78.4444" y1="-83.6254" x2="-146.613" y2="115.309" stroke="#4B5257"/>
<line x1="84.503" y1="-83.6254" x2="-140.555" y2="115.309" stroke="#4B5257"/>
<line x1="90.5616" y1="-83.6254" x2="-134.496" y2="115.309" stroke="#4B5257"/>
<line x1="96.6202" y1="-83.6254" x2="-128.437" y2="115.309" stroke="#4B5257"/>
<line x1="102.679" y1="-83.6254" x2="-122.379" y2="115.309" stroke="#4B5257"/>
<line x1="108.737" y1="-83.6254" x2="-116.32" y2="115.309" stroke="#4B5257"/>
<line x1="114.796" y1="-83.6254" x2="-110.262" y2="115.309" stroke="#4B5257"/>
<line x1="120.855" y1="-83.6254" x2="-104.203" y2="115.309" stroke="#4B5257"/>
<line x1="126.913" y1="-83.6254" x2="-98.1444" y2="115.309" stroke="#4B5257"/>
<line x1="132.972" y1="-83.6254" x2="-92.0858" y2="115.309" stroke="#4B5257"/>
<line x1="139.03" y1="-83.6254" x2="-86.0273" y2="115.309" stroke="#4B5257"/>
<line x1="145.089" y1="-83.6254" x2="-79.9687" y2="115.309" stroke="#4B5257"/>
<line x1="151.148" y1="-83.6254" x2="-73.9101" y2="115.309" stroke="#4B5257"/>
<line x1="157.206" y1="-83.6254" x2="-67.8515" y2="115.309" stroke="#4B5257"/>
<line x1="163.265" y1="-83.6254" x2="-61.7929" y2="115.309" stroke="#4B5257"/>
<line x1="169.323" y1="-83.6254" x2="-55.7343" y2="115.309" stroke="#4B5257"/>
<line x1="175.382" y1="-83.6254" x2="-49.6757" y2="115.309" stroke="#4B5257"/>
<line x1="181.441" y1="-83.6254" x2="-43.6171" y2="115.309" stroke="#4B5257"/>
<line x1="187.499" y1="-83.6254" x2="-37.5585" y2="115.309" stroke="#4B5257"/>
<line x1="193.558" y1="-83.6254" x2="-31.4999" y2="115.309" stroke="#4B5257"/>
<line x1="199.616" y1="-83.6254" x2="-25.4413" y2="115.309" stroke="#4B5257"/>
<line x1="205.675" y1="-83.6254" x2="-19.3827" y2="115.309" stroke="#4B5257"/>
<line x1="211.733" y1="-83.6254" x2="-13.3241" y2="115.309" stroke="#4B5257"/>
<line x1="217.792" y1="-83.6254" x2="-7.26553" y2="115.309" stroke="#4B5257"/>
<line x1="223.851" y1="-83.6254" x2="-1.20694" y2="115.309" stroke="#4B5257"/>
<line x1="229.909" y1="-83.6254" x2="4.85165" y2="115.309" stroke="#4B5257"/>
<line x1="235.968" y1="-83.6254" x2="10.9102" y2="115.309" stroke="#4B5257"/>
<line x1="242.026" y1="-83.6254" x2="16.9688" y2="115.309" stroke="#4B5257"/>
<line x1="248.085" y1="-83.6254" x2="23.0274" y2="115.309" stroke="#4B5257"/>
<line x1="254.144" y1="-83.6254" x2="29.086" y2="115.309" stroke="#4B5257"/>
<line x1="260.202" y1="-83.6254" x2="35.1446" y2="115.309" stroke="#4B5257"/>
<line x1="266.261" y1="-83.6254" x2="41.2032" y2="115.309" stroke="#4B5257"/>
<line x1="272.319" y1="-83.6254" x2="47.2618" y2="115.309" stroke="#4B5257"/>
<line x1="278.378" y1="-83.6254" x2="53.3204" y2="115.309" stroke="#4B5257"/>
<line x1="284.437" y1="-83.6254" x2="59.379" y2="115.309" stroke="#4B5257"/>
<line x1="290.495" y1="-83.6254" x2="65.4376" y2="115.309" stroke="#4B5257"/>
<line x1="296.554" y1="-83.6254" x2="71.4962" y2="115.309" stroke="#4B5257"/>
<line x1="302.612" y1="-83.6254" x2="77.5548" y2="115.309" stroke="#4B5257"/>
<line x1="308.671" y1="-83.6254" x2="83.6134" y2="115.309" stroke="#4B5257"/>
<line x1="314.73" y1="-83.6254" x2="89.672" y2="115.309" stroke="#4B5257"/>
<line x1="320.788" y1="-83.6254" x2="95.7306" y2="115.309" stroke="#4B5257"/>
<line x1="326.847" y1="-83.6254" x2="101.789" y2="115.309" stroke="#4B5257"/>
<line x1="332.905" y1="-83.6254" x2="107.848" y2="115.309" stroke="#4B5257"/>
<line x1="338.964" y1="-83.6254" x2="113.906" y2="115.309" stroke="#4B5257"/>
<line x1="345.023" y1="-83.6254" x2="119.965" y2="115.309" stroke="#4B5257"/>
<line x1="351.081" y1="-83.6254" x2="126.024" y2="115.309" stroke="#4B5257"/>
<line x1="357.14" y1="-83.6254" x2="132.082" y2="115.309" stroke="#4B5257"/>
<line x1="363.198" y1="-83.6254" x2="138.141" y2="115.309" stroke="#4B5257"/>
<line x1="369.257" y1="-83.6254" x2="144.199" y2="115.309" stroke="#4B5257"/>
<line x1="375.316" y1="-83.6254" x2="150.258" y2="115.309" stroke="#4B5257"/>
<line x1="381.374" y1="-83.6254" x2="156.316" y2="115.309" stroke="#4B5257"/>
<line x1="387.433" y1="-83.6254" x2="162.375" y2="115.309" stroke="#4B5257"/>
<line x1="393.491" y1="-83.6254" x2="168.434" y2="115.309" stroke="#4B5257"/>
<line x1="399.55" y1="-83.6254" x2="174.492" y2="115.309" stroke="#4B5257"/>
<line x1="405.608" y1="-83.6254" x2="180.551" y2="115.309" stroke="#4B5257"/>
<line x1="411.667" y1="-83.6254" x2="186.609" y2="115.309" stroke="#4B5257"/>
<line x1="417.726" y1="-83.6254" x2="192.668" y2="115.309" stroke="#4B5257"/>
<line x1="423.784" y1="-83.6254" x2="198.727" y2="115.309" stroke="#4B5257"/>
<line x1="429.843" y1="-83.6254" x2="204.785" y2="115.309" stroke="#4B5257"/>
<line x1="435.901" y1="-83.6254" x2="210.844" y2="115.309" stroke="#4B5257"/>
<line x1="441.96" y1="-83.6254" x2="216.902" y2="115.309" stroke="#4B5257"/>
<line x1="448.019" y1="-83.6254" x2="222.961" y2="115.309" stroke="#4B5257"/>
<line x1="454.077" y1="-83.6254" x2="229.02" y2="115.309" stroke="#4B5257"/>
</g>
<defs>
<clipPath id="clip0_0_693">
<rect width="234" height="30" fill="white"/>
</clipPath>
</defs>
</svg>
