<svg width="69" height="69" viewBox="0 0 69 69" fill="none" xmlns="http://www.w3.org/2000/svg">
<circle cx="34.455" cy="34.455" r="34.455" fill="#0072FF"/>
<path d="M40.6324 11.1549L13.0412 28.3557C11.148 29.4162 9.55236 30.2639 10.1142 32.2288C11.5561 33.7099 13.1073 32.7858 15.0006 31.7254L43.3579 15.842C45.2552 14.7885 42.5258 10.0945 40.6324 11.1549Z" fill="#F5F5F7"/>
<path d="M48.7331 19.3417C47.4955 17.1329 44.7471 16.3559 42.5655 17.577L42.4672 17.5497L14.5656 33.7671C12.7027 34.85 10.4188 34.4413 9 32.929C9.09816 33.2849 9.22504 33.6429 9.41141 33.9757L11.6132 37.9047L12.6557 37.2986L13.0327 37.9713L11.99 38.5773L12.8865 40.1772L21.5584 55.653C22.8079 57.883 25.6029 58.6611 27.7926 57.3884L55.6942 41.1708C57.8906 39.8941 58.6475 37.0514 57.3981 34.8215L56.438 33.1081L55.3745 33.7264C55.5222 34.0722 55.6451 34.4231 55.7085 34.7993L54.9598 34.9433C54.9123 34.6613 54.8222 34.3853 54.7111 34.1213L51.8056 35.8101C48.5943 37.6768 44.489 36.534 42.6563 33.2633C40.8236 29.9926 41.9455 25.8115 45.157 23.9449L49.7864 21.2541L48.7192 19.3497L48.7331 19.3417ZM54.986 36.3548L55.7343 36.4735C55.6536 37.0366 55.4747 37.5723 55.2113 38.0727L54.5394 37.7124C54.771 37.2869 54.9152 36.8371 54.986 36.3548ZM52.5014 39.6666L52.9254 39.4202C53.2035 39.2585 53.4616 39.0615 53.697 38.8402L54.219 39.4098C53.9427 39.6735 53.6359 39.8988 53.3093 40.0886L52.8852 40.3352L52.5084 39.6625L52.5014 39.6666ZM49.8391 41.2141L51.1667 40.4423L51.5437 41.1149L50.2159 41.8865L49.8391 41.2141ZM24.8932 56.6052L23.5587 57.3809L23.1818 56.7084L24.5164 55.9327L24.8932 56.6052ZM13.9865 36.516L15.321 35.7402L15.6979 36.4127L14.3633 37.1884L13.9865 36.516ZM27.5625 55.0538L26.2279 55.8295L25.851 55.1569L27.1857 54.3812L27.5625 55.0538ZM16.6487 34.9684L17.9832 34.1928L18.3602 34.8653L17.0255 35.641L16.6487 34.9684ZM30.2247 53.5064L28.8901 54.282L28.5133 53.6095L29.8478 52.8338L30.2247 53.5064ZM19.3179 33.417L20.6525 32.6413L21.0293 33.3139L19.6948 34.0895L19.3179 33.417ZM32.8939 51.9549L31.5594 52.7306L31.1825 52.058L32.5171 51.2824L32.8939 51.9549ZM21.9801 31.8695L23.3147 31.0939L23.6917 31.7664L22.357 32.5421L21.9801 31.8695ZM35.5563 50.4075L34.2216 51.1833L33.8447 50.5106L35.1793 49.7349L35.5563 50.4075ZM24.6494 30.3181L25.984 29.5424L26.3608 30.215L25.0262 30.9908L24.6494 30.3181ZM38.2185 48.86L36.8839 49.6357L36.5071 48.9633L37.8416 48.1875L38.2185 48.86ZM27.3116 28.7708L28.6462 27.995L29.0231 28.6676L27.6884 29.4432L27.3116 28.7708ZM40.8877 47.3086L39.553 48.0844L39.1762 47.4117L40.5108 46.636L40.8877 47.3086ZM29.9739 27.2233L31.3085 26.4476L31.6853 27.1201L30.3507 27.8959L29.9739 27.2233ZM43.5499 45.7612L42.2154 46.5368L41.8385 45.8644L43.1731 45.0886L43.5499 45.7612ZM32.643 25.6719L33.9776 24.8961L34.3546 25.5687L33.0199 26.3443L32.643 25.6719ZM46.2122 44.2137L44.8775 44.9895L44.5007 44.3169L45.8353 43.5412L46.2122 44.2137ZM35.3054 24.1245L36.6399 23.3487L37.0168 24.0212L35.6822 24.797L35.3054 24.1245ZM48.5045 41.9897L48.8814 42.6623L47.5468 43.4381L47.17 42.7655L48.5045 41.9897ZM39.683 22.4809L38.3485 23.2567L37.9715 22.5841L39.3062 21.8084L39.683 22.4809ZM42.3522 20.9295L41.0176 21.7051L40.6408 21.0327L41.9753 20.2569L42.3522 20.9295ZM45.0498 20.3C44.5772 20.2462 44.1126 20.2723 43.656 20.3782L43.4896 19.6208C44.0346 19.4917 44.5885 19.4606 45.1404 19.5247L45.0498 20.3ZM47.5457 21.5148C47.2193 21.1789 46.8313 20.8976 46.4046 20.6952L46.7326 19.9978C47.2406 20.2468 47.6991 20.5715 48.0861 20.966L47.5457 21.5148Z" fill="#F5F5F7"/>
<path d="M43.7154 32.4426C44.9842 34.4979 48.208 35.8944 51.177 34.328L56 31.7834L50.5778 23L45.7549 25.5446C42.7134 27.1492 42.4467 30.3874 43.7154 32.4426ZM45.4535 27.8869L46.0987 28.3097C45.8244 28.6586 45.6472 29.0715 45.5756 29.4997L44.7917 29.3808C44.8758 28.8483 45.1028 28.3292 45.4535 27.8869ZM45.8676 32.3987C45.6227 32.1729 45.4098 31.9215 45.2362 31.6403C45.1123 31.4395 45.0141 31.2339 44.9377 31.0167L45.6855 30.7819C45.7475 30.9445 45.825 31.1167 45.92 31.2706C46.0564 31.4915 46.2177 31.6904 46.4151 31.8703L45.8676 32.3987ZM49.1392 33.3441C48.5549 33.4394 47.9551 33.4008 47.3853 33.24L47.6236 32.5373C48.0682 32.6666 48.5481 32.6975 49.0104 32.6221L49.1392 33.3441ZM51.7419 32.2106L50.3588 32.9402L49.9662 32.3043L51.3493 31.5745L51.7419 32.2106ZM49.5421 25.3657L50.918 24.6399L51.3107 25.2758L49.9347 26.0018L49.5421 25.3657ZM52.7397 30.8409L54.1157 30.1151L54.5082 30.7511L53.1324 31.477L52.7397 30.8409ZM49.2975 31.6719C48.3199 32.1878 47.0686 31.8716 46.5107 30.9678C45.9527 30.0641 46.2947 28.9073 47.2723 28.3917C48.2499 27.8758 49.497 28.1853 50.0591 29.0958C50.617 29.9995 50.2751 31.1563 49.2975 31.6719ZM46.7759 26.8253L48.159 26.0955L48.5516 26.7315L47.1685 27.4613L46.7759 26.8253Z" fill="#F5F5F7"/>
</svg>
